<?xml version="1.0" encoding="iso-8859-1"?>
<!-- Generator: Adobe Illustrator 19.0.0, SVG Export Plug-In . SVG Version: 6.00 Build 0)  -->
<svg version="1.1" id="Capa_1" xmlns="http://www.w3.org/2000/svg" xmlns:xlink="http://www.w3.org/1999/xlink" x="0px" y="0px"
	 viewBox="0 0 472.964 472.964" style="enable-background:new 0 0 472.964 472.964;" xml:space="preserve">
<path style="fill:#D32144;" d="M352.004,8.492v48l-72-24L352.004,8.492z"/>
<circle style="fill:#03AA6F;" cx="164.004" cy="76.492" r="20"/>
<path style="fill:#F9C3A7;" d="M248.004,8.492v32c0,13.255-10.745,24-24,24c-13.255,0-24-10.745-24-24v-8c0-13.255,10.745-24,24-24
	H248.004z"/>
<g>
	<path style="fill:#14335D;" d="M184.004,272.492l8-88h24l-8,88l-72,88L184.004,272.492z"/>
	<path style="fill:#14335D;" d="M240.004,184.492l24,72l-31.04,77.68l-0.72-0.24l7.76-77.44l-24-72H240.004z"/>
</g>
<path style="fill:#D17F4D;" d="M256.004,328.492l32-16l8-8l24-16l16,7.6l16.48-6.4l23.52-9.2l16,40l-32,48l7.52,37.6l0.48,2.4v32
	l16,32h-32h-208h-144v-40l16-8l16-24l24-24l64,7.04l35.6-23.04l12.4-8l16-16l32-8l16.24,5.44l-0.24,2.56l4-1.36l4,1.36
	L256.004,328.492z"/>
<path style="fill:#DDF7FF;" d="M368.004,406.012c-0.013-23.448,18.984-42.467,42.432-42.48c0.016,0,0.032,0,0.048,0
	c4.322,0.034,8.612,0.736,12.72,2.08c6.571-22.003,26.797-37.091,49.76-37.12l-0.96,144h-88l-16-32v-32l-0.48-2.4L368.004,406.012z"
	/>
<path style="fill:#EC9821;" d="M296.004,136.492c-1.403,0.009-2.784-0.355-4-1.056l-56-32l7.936-13.888l51.552,29.456l51.832-37.024
	l9.296,13.024l-56,40C299.272,135.966,297.66,136.486,296.004,136.492z"/>
<path style="fill:#D32144;" d="M352.004,64.492c-0.859-0.001-1.712-0.138-2.528-0.408l-72-24c-4.197-1.38-6.482-5.901-5.102-10.098
	c0.794-2.415,2.687-4.308,5.102-5.102l72-24c4.192-1.396,8.722,0.87,10.118,5.062c0.273,0.821,0.412,1.681,0.41,2.546v48
	C360.004,60.91,356.422,64.492,352.004,64.492z M305.3,32.492l38.704,12.904V19.588L305.3,32.492z"/>
<path style="fill:#454545;" d="M360.004,288.492h-16v-280c0-4.418,3.582-8,8-8s8,3.582,8,8V288.492z"/>
<g>
	<path style="fill:#A8663E;" d="M281.348,428.932l-27.744-41.656l-33.456,20.072c-2.652,1.594-5.985,1.516-8.56-0.2L192.3,394.292
		l-27.496,20.6l-9.6-12.8l32-24c2.714-2.036,6.417-2.139,9.24-0.256l19.784,13.192l35.656-21.392c3.657-2.204,8.4-1.147,10.776,2.4
		l32,48L281.348,428.932z"/>
	<path style="fill:#A8663E;" d="M318.66,396.932l-13.312-8.88l13.056-19.56l-13.04-19.56l13.312-8.88l16,24
		c1.794,2.688,1.794,6.192,0,8.88L318.66,396.932z"/>
</g>
<path style="fill:#14335D;" d="M277.476,312.9l-31.608,10.528l25.6-64c0.698-1.757,0.752-3.704,0.152-5.496l-24-72l-15.2,5.056
	l23.072,69.224l-9.904,24.8l2.4-23.72c0.113-1.123-0.016-2.258-0.376-3.328l-24-72l-7.608,2.528l-8-0.72l-7.744,85.52
	l-16.256,19.888l7.016-12.856c0.535-0.96,0.87-2.019,0.984-3.112l8-88l-16-1.44l-7.824,86.32l-47.2,86.544
	c-2.13,3.871-0.718,8.736,3.153,10.865c1.186,0.652,2.517,0.993,3.871,0.991h40v-16h-23.112l61.304-74.936
	c1.024-1.234,1.654-2.747,1.808-4.344l4.536-49.904l11.36,34.088l-7.584,75.784l-0.232,2.464v0.096
	c-0.415,4.399,2.814,8.301,7.212,8.717c0.235,0.022,0.471,0.034,0.708,0.035c0.873-0.002,1.74-0.145,2.568-0.424l48-16
	L277.476,312.9z"/>
<path style="fill:#A8663E;" d="M101.132,426.348c-1.439-1.2-3.254-1.857-5.128-1.856h-24c-0.859-0.001-1.713,0.137-2.528,0.408
	l-24,8l5.056,15.2l22.768-7.608h19.808l38.4,32h12.496l5.128-6.144L101.132,426.348z"/>
<path style="fill:#FFCB5A;" d="M240.004,80.492h-34.48c-11.88,0.013-21.507,9.64-21.52,21.52h8v90.48h48c4.418,0,8-3.582,8-8v-96
	C248.004,84.074,244.422,80.492,240.004,80.492z"/>
<path style="fill:#EC9821;" d="M280.004,168.492c-1.731,0-3.415-0.561-4.8-1.6l-64-48l9.6-12.8l60.872,45.656l84.208-22.968
	l4.24,15.424l-88,24C281.433,168.392,280.72,168.489,280.004,168.492L280.004,168.492z"/>
<path style="fill:#DDF7FF;" d="M101.364,33.852c13.984-0.026,25.341,11.288,25.368,25.272s-11.288,25.341-25.272,25.368
	c-8.922,0.017-17.195-4.663-21.776-12.32c-11.439,7.761-26.387,8.012-38.08,0.64c-5.806,10.754-19.23,14.765-29.984,8.96
	c-10.754-5.806-14.765-19.23-8.96-29.984c3.868-7.166,11.36-11.628,19.503-11.616c1.1,0.023,2.196,0.13,3.28,0.32
	c1.578-19.177,18.404-33.443,37.58-31.865c14.935,1.229,27.41,11.871,30.98,26.425C96.381,34.278,98.864,33.873,101.364,33.852z"/>
<path style="fill:#EC9821;" d="M192.004,102.012v82.48h-48v-88h20h28V102.012z"/>
<g>
</g>
<g>
</g>
<g>
</g>
<g>
</g>
<g>
</g>
<g>
</g>
<g>
</g>
<g>
</g>
<g>
</g>
<g>
</g>
<g>
</g>
<g>
</g>
<g>
</g>
<g>
</g>
<g>
</g>
</svg>
