<svg id="Capa_1" enable-background="new 0 0 512 512" height="512" viewBox="0 0 512 512" width="512" xmlns="http://www.w3.org/2000/svg"><g><g><g clip-rule="evenodd" fill-rule="evenodd"><path d="m222.855 129.895c20.102 7.248 42.499-3.227 49.813-23.321l9.268-25.463h-82.881c-6.494 19.784 3.911 41.477 23.577 48.703zm110.97 67.759h28.076c10.336 0 18.793-8.457 18.793-18.794 0-10.336-8.457-18.794-18.793-18.794h-28.076z" fill="#fbf2e2"/><path d="m199.054 81.111h82.881c7.328-20.132-3.148-42.598-23.28-49.925s-42.597 3.149-49.925 23.28c-3.192 8.772-6.778 17.818-9.676 26.645z" fill="#c4e5f9"/><path d="m116.321 265.672h87.382l43.713-74.826 44.652 6.807h41.756v-37.588h-28.076l-112.187-40.833c-10.346-3.766-21.89 1.666-25.634 11.954z" fill="#ed9c87"/><path d="m116.321 265.672 51.607-134.485c1.489-4.092 4.196-7.407 7.565-9.686l-54.816-4.565-44.774 116.683z" fill="#f0d5b3"/><path d="m126.187 423.789 40.017-95.117c6.398-15.207 21.001-18.03 37.5-18h45v32.259h45v-47.259c0-16.5-13.501-30-30-30h-147.383c-10.056 18.606-26.864 43.962-5.42 78.317l-32.404 79.799h47.69z" fill="#c4e5f9"/><path d="m66.316 483.166h69.749c-.004-14.956-.291-29.377-22.5-29.377l12.621-30h-47.688l-12.182 30zm182.387-80.241h67.499c0-15.735.014-29.994-22.5-29.994v-30h-45v59.994z" fill="#ed9c87"/><path d="m154.93 483.166h349.569v-204.742h-71.348l-71.25 124.501h-113.198z" fill="#f0d5b3"/><path d="m248.703 303.172v39.759h22.5v-39.759zm-109.882-37.5h-22.5c-10.056 18.606-26.864 43.962-5.42 78.317l-32.404 79.799h22.5l32.404-79.799c-21.444-34.355-4.637-59.711 5.42-78.317z" fill="#83c8f1"/><path d="m66.316 483.166h22.5v-29.377l12.182-30h-22.5l-12.182 30zm182.387-80.241h22.5v-59.994h-22.5z" fill="#db380e"/><path d="m116.321 265.672h22.5l51.607-134.485c1.579-4.339 4.546-7.815 8.226-10.1l-5.092-1.853c-10.346-3.766-21.89 1.666-25.634 11.954z" fill="#db380e"/><path d="m142.477 118.752-21.799-1.815-44.775 116.682 17.042 13.515z" fill="#dfa357"/><path d="m222.855 129.895c8.137 2.934 16.65 2.963 24.386.626-.631-.192-1.259-.4-1.886-.626l-.224-.081c-19.666-7.226-30.071-28.919-23.577-48.703h-22.5c-6.494 19.784 3.911 41.477 23.577 48.703z" fill="#f6dfb9"/><path d="m199.054 81.111h22.5c2.898-8.827 6.484-17.873 9.676-26.645 4.353-11.959 14.048-20.511 25.423-23.947-19.597-5.956-40.837 4.48-47.923 23.947-3.192 8.772-6.778 17.818-9.676 26.645z" fill="#83c8f1"/><path d="m154.93 483.166h349.569v-22.5h-293.275l67.479-57.741h-30zm243.72-92.035v11.794h-36.749l71.25-124.5h30z" fill="#dfa357"/></g><g><path d="m482 345.924h-15v-15h15zm0-30h-15v-15h15zm-295.033-125.095-14.004-5.373 5.374-14.004 14.004 5.373zm10.748-28.009-14.004-5.374 5.374-14.004 14.004 5.374z" fill="#fff"/></g></g><path d="m512 415.667v-144.743h-83.198l-59.4 103.796v-170.662c10.854-3.237 18.793-13.305 18.793-25.198s-7.939-21.961-18.793-25.198v-23.596h-15v22.5h-47.33l-49.71-18.093c10.436-5.375 18.339-14.303 22.354-25.334l9.268-25.462c4.229-11.619 3.664-24.227-1.593-35.499-5.256-11.273-14.55-19.81-26.169-24.039-24.071-8.761-50.777 3.695-59.538 27.763l-7.901 21.71h-24.727v15h20.787c-.771 7.675.41 15.45 3.5 22.726-6.802-1.691-13.775-.661-19.639 2.49l-58.01-4.83-21.716 56.591 14.004 5.374 17.684-46.083 35.526 2.958c-.096.241-.197.479-.286.724l-47.925 124.889-28.1-22.285 17.727-46.196-14.004-5.374-21.673 56.479 39.773 31.542c-9.794 17.843-22.931 43.912-4.151 77.007l-43.737 107.699v23.342h-58.816v15h512v-60h-15v45h-321.77l76.244-65.241h147.176v-15h-23.816l62.665-109.5h59.501v129.742h15zm-255.797-65.236h30v30h7.5c10.464 0 12.244 3.495 13.003 4.988 1.257 2.469 1.722 5.995 1.895 10.006h-52.397v-44.994zm63.871 28.184c-3.539-6.954-9.871-11.183-18.871-12.625v-70.318c0-20.678-16.822-37.5-37.5-37.5h-46.932l34.552-59.144 40.177 6.125h62.901v190.271h-30.793c-.222-5.955-.973-11.778-3.534-16.809zm53.12-199.755c0 6.227-5.066 11.293-11.293 11.293h-20.576v-22.587h20.576c6.227.001 11.293 5.067 11.293 11.294zm-157.416-121.828c4.644-12.759 16.735-20.697 29.587-20.697 3.564 0 7.188.611 10.726 1.899 7.854 2.859 14.142 8.642 17.705 16.283 2.828 6.065 3.648 12.691 2.439 19.095h-66.491zm55.446 31.579-5.604 15.397c-2.858 7.854-8.641 14.142-16.282 17.705-7.636 3.561-16.161 3.95-24.01 1.1l-.038-.014c-7.845-2.861-14.126-8.641-17.686-16.276-2.655-5.693-3.544-11.88-2.645-17.913h66.265zm-96.294 45.263.045-.122c2.357-6.477 9.542-9.831 16.022-7.471l113.429 41.285h21.898v22.587h-33.688l-70.356-10.726-2.261 14.828 15.352 2.341-35.972 61.575h-72.167zm-57.666 206.144c-17.663-28.298-6.457-48.781 3.5-66.846h142.939c12.407 0 22.5 10.093 22.5 22.5v39.759h-30v-32.259h-52.485c-.094 0-.188 0-.283 0-16.192 0-35.745 2.626-44.144 22.591l-38.085 90.525h-31.568l29.652-73.024zm-43.448 115.235 9.731-23.964h31.348l-12.621 30h11.292c10.39 0 12.209 3.619 12.986 5.165 1.172 2.333 1.66 5.601 1.865 9.213h-54.6v-20.414zm69.624 20.413c-.256-5.605-1.045-11.092-3.486-15.949-3.112-6.192-8.347-10.262-15.626-12.17l48.789-115.967c4.055-9.64 12.57-13.408 30.351-13.408h.236 37.5v81.3l-89.043 76.194z"/></g></svg>